#!OML:ASF F:\VICON\USERDATA\INSTALL\rory3\rory3.ASF
:FULLY-SPECIFIED
:DEGREES
60
root 0.2635375943533045 17.21493814010453 20.21396889162832 -2.509609967720754 -1.6769542438956921 -6.086139455045355
lfemur -20.266202032635633 -1.9577931945083622 -13.484971463415508
ltibia 21.459973407558458
lfoot -4.858061252739455 -4.532418897982235
ltoes -13.453607380722346
rfemur 4.013408984836525 5.867980862562673 31.867100773515002
rtibia 36.69863835613528
rfoot 0.13507138532648177 -9.372074094731776
rtoes 4.588596965384619
lowerback 8.35711991204611 1.6460188209004574 5.206616320891754
upperback -0.17523622393259095 3.0933881709419144 1.504181301371528
thorax -5.1140235355825805 1.4746378262157478 -2.2048580271761775
lowerneck -16.375906382836863 -2.845769042378122 -1.1127490717099742
upperneck 23.179207321369276 -3.5700029251278838 -0.6440958948887264
head 10.150570616246776 -1.8283132148916246 -0.5781265119237413
lclavicle -1.3870870714149139e-15 -1.8433268644709162e-15
lhumerus -35.563778157559405 8.63144861501761 79.6300886091019
lradius 26.273891631040897
lwrist 4.730113411251274
lhand -26.55364497658044 24.22988695430484
lfingers 7.125019999999999
lthumb -0.2102080774504318 53.61682936361104
rclavicle -1.386347436878444e-15 -1.8432688040389366e-15
rhumerus -23.49082760125778 -15.44006424722198 -80.74087495631915
rradius 30.673411262980085
rwrist -1.6504585191892245
rhand -19.35092724639662 23.661171775205922
rfingers 7.125019999999999
rthumb 7.027836465657709 -6.015320841760174
61
root 0.4678457043920369 17.177124839569952 18.524250008521047 -3.114423822595143 -1.767151334095976 -5.129402417261701
lfemur -19.46724201636996 -1.7809480198889784 -14.749848129609266
ltibia 22.67737805819972
lfoot -4.488952615039383 -5.207739088920338
ltoes -12.476616657620443
rfemur 3.8071210883131688 5.974478263795996 30.568431839070044
rtibia 41.06330924464655
rfoot 0.4033946029346822 -9.675754348945834
rtoes 6.308309350336831
lowerback 9.0196030223309 1.7220572974054744 4.382322058547432
upperback -0.03729007534346243 3.058251722644959 1.2501240789533505
thorax -5.0798012276598765 1.4646480373527229 -1.9706246700591457
lowerneck -16.215368371330882 -2.8931026630373977 -1.1832966271064995
upperneck 23.22283738600975 -3.681249261797182 -0.4875034525544039
head 10.181706353160493 -1.86213683308402 -0.5630480485140394
lclavicle -1.3883706365262617e-15 -1.8445225319810362e-15
lhumerus -35.85693331191925 8.847261154087423 79.26802711524321
lradius 26.14188560811008
lwrist 4.941913720198615
lhand -26.359814296437154 24.353863732714345
lfingers 7.125019999999999
lthumb -0.0037568554490500228 53.75838619543151
rclavicle -1.3858453631715043e-15 -1.8428731519974078e-15
rhumerus -23.981675028880918 -16.4345891188416 -80.5789956603693
rradius 30.318934625820766
rwrist -0.9828451471068025
rhand -19.34453614539941 23.669115763979825
rfingers 7.125019999999999
rthumb 7.020567377320315 -5.944991794248617
62
root 0.6377188084060478 17.20292803777006 18.05009487103382 -3.5220880525656275 -2.473219841281023 -4.571743837718656
lfemur -19.056402527935347 -2.311764401767763 -15.609073336379911
ltibia 25.314694402029293
lfoot -3.1886990970820053 -5.189792738760479
ltoes -10.796087065773522
rfemur 3.171651354070308 6.313932553269014 29.821832330512503
rtibia 45.83404921785147
rfoot 0.20867242557222632 -9.67758350219727
rtoes 7.82087876678683
lowerback 9.617045346582128 1.9417274573890773 3.7999532727680503
upperback 0.24992203470344265 3.161110258974467 1.0353229991714785
thorax -4.851314299272973 1.52149381508691 -1.70452985061807
lowerneck -16.001416831045667 -2.9484465765916976 -1.2556781227037899
upperneck 23.47310065150817 -3.810648212742403 -0.3405308050037731
head 10.257668726973687 -1.9050315048392186 -0.5498672660830719
lclavicle -1.3896680644607658e-15 -1.8457226486381234e-15
lhumerus -35.87080384551514 8.761817433634047 79.07132250008918
lradius 25.934301953585564
lwrist 4.701439645073377
lhand -26.093504224272664 24.439346021459784
lfingers 7.125019999999999
lthumb 0.3051325501491384 53.9258355787536
rclavicle -1.3849869806583683e-15 -1.8419993273548773e-15
rhumerus -24.896305849962165 -17.560037439255986 -80.3252464904173
rradius 29.733481763629168
rwrist 0.02447689924954144
rhand -19.273609326268932 23.59808184233859
rfingers 7.125019999999999
rthumb 7.087877845086261 -5.981185569901806
63
root 0.820737650267666 17.419706212101936 18.47280621130522 -3.2504910300655823 -3.0747622858866444 -2.329515325973934
lfemur -17.25458870807612 -4.127778072809441 -18.1113476814767
ltibia 26.6128818284103
lfoot -3.8264801732828495 -5.508781261972166
ltoes -10.331119536447808
rfemur 0.7039047436710355 5.979485147802833 26.691865446079596
rtibia 52.141085859076036
rfoot -0.29071702190422855 -9.402994163790842
rtoes 8.529457505402823
lowerback 9.500692856931323 2.089148729935146 2.617590744530464
upperback 0.6156457902818331 3.0258875172458612 0.6795245669276888
thorax -4.436203900390055 1.4804273286493916 -1.2466447040887696
lowerneck -15.81771519277184 -2.9728486604418456 -1.298481617988931
upperneck 23.86655565573518 -3.8872314548859412 -0.22908760259050814
head 10.37376553184278 -1.9322778509988436 -0.5362743874124738
lclavicle -1.3896971572156908e-15 -1.845742551212517e-15
lhumerus -35.66421054614871 8.292312485908095 79.0474349554897
lradius 25.86210663531226
lwrist 4.089385922217805
lhand -25.83901060478458 24.45331263934563
lfingers 7.125019999999999
lthumb 0.5829723586240918 54.005982127260246
rclavicle -1.3848107052356053e-15 -1.841731279096349e-15
rhumerus -25.816270650780176 -18.54380895581621 -79.87531165216461
rradius 28.84277793504087
rwrist 1.319681902730946
rhand -19.1374372169409 23.443322421451423
rfingers 7.125019999999999
rthumb 7.207367484282919 -6.145189921892286
